<?xml version="1.0" encoding="UTF-8" standalone="no"?>
<svg
   xmlns:rdf="http://www.w3.org/1999/02/22-rdf-syntax-ns#"
   xmlns="http://www.w3.org/2000/svg"
   xmlns:cc="http://creativecommons.org/ns#"
   xmlns:dc="http://purl.org/dc/elements/1.1/"
   id="svg2"
   xml:space="preserve"
   viewBox="0 0 371.09739 55.030531"
   width="265"
   height="49"
   version="1.1"
><switch
     id="switch3044"
     transform="translate(0 -6.4855)"><g
       id="g10"
       transform="matrix(1.3333,0,0,-1.3333,0,68)"><g
         id="g12"
         transform="scale(.1)"><path
           id="path14"
           fill="#e61739"
           d="m0 0h340v510h-340v-510z" /><path
           id="path16"
           fill="#040606"
           d="m2330.5 96.227h71v70.996h-71v-70.993z"
           style="fill:#ffffff;fill-opacity:1" /><path
           id="path18"
           fill="#040606"
           d="m2512.3 120.8c9.6-4.418 18.36-6.383 26.71-6.383 26.29 0 46.32 27.707 46.32 108.72 0 80.035-17.11 93.011-40.9 93.011-11.27 0-20.44-4.421-32.13-14.238v-181.11zm0-94.816 37.14-18.477v-4.9102h-136.1v4.9102l28.79 18.477v294.87l-28.79 10.804v3.926l96.46 20.133 2.51-2.457v-33.563l0.83-0.492c17.11 23.078 40.49 36.512 65.53 36.512 38.39 0 80.13-40.262 80.13-127.17 0-94.273-52.17-136.01-100.59-136.01-16.27 0-32.54 4.4219-45.9 13.258v-79.809"
           style="fill:#ffffff;fill-opacity:1" /><path
           id="path20"
           fill="#040606"
           d="m2754.5 119.49v388.12l-3.35 2.391-97.72-19.543v-3.816l30.05-10.176-0.04-356.97-28.8-18.355v-4.9104h128.66v4.9104l-28.8 18.355"
           style="fill:#ffffff;fill-opacity:1" /><path
           id="path22"
           fill="#040606"
           d="m912.34 349.7v-4.832l36.172-18.593-46.383-149.61h-3.695l-59.071 149.97 28.325 18.23v4.832h-163.64v-4.832l38.109-18.414-39.625-149.78-3.777-0.004-61.129 173.03h-25.394l-45.735-173.04-3.687 0.008-52.989 150.04 30.645 18.164v4.832h-128.46v-4.832l19.9-18.28 81.62-230.36h47.078l37.727 140.54h3.933l49.75-140.54h41.407l69.042 223.86 0.36 0.351 97.445-247.56-91.281-65.586-0.012-4.7656h86.922l115.2 323.77 24.664 18.566v4.832h-83.437"
           style="fill:#ffffff;fill-opacity:1" /><path
           id="path24"
           fill="#040606"
           d="m1080.5 104.91c5.66-1.914 12.33-2.387 17.98-2.387 34.85 0 57.5 34.793 57.5 118.64 0 78.633-17.12 95.414-41.93 95.414-11.78 0-21.35-4.285-33.55-13.812v-197.86zm-101.07 381.73v3.816l97.719 19.543 3.35-2.391v-186.97l1.11-0.481c18.31 22.871 41.28 35.617 67.41 35.617 40.08 0 83.65-44.535 83.65-128.88 0-98.649-64.05-136.7-126.77-136.7-37.04 0-72.03 10.481-96.42 24.293v361.98l-30.049 10.176"
           style="fill:#ffffff;fill-opacity:1" /><path
           id="path26"
           fill="#040606"
           d="m1369.1 343.92c-25.08 0-39.23-39.715-39.23-121.04 0-81.336 14.15-121.04 39.23-121.04 25.07 0 39.21 39.707 39.21 121.04 0 81.328-14.14 121.04-39.21 121.04zm-0.04-253.98c-57.72 0-114.58 49.688-114.58 132.94 0 83.242 56.86 132.93 114.58 132.93 57.73 0 114.59-49.691 114.59-132.93 0-83.254-56.86-132.94-114.59-132.94"
           style="fill:#ffffff;fill-opacity:1" /><path
           id="path28"
           fill="#040606"
           d="m1868.8 96.219-2.64 7.2262 91.9 192.4 19.9 38.707-0.94 1.805-60.21-0.461-0.76-1.329-36.82-64.667h-4.36v79.781h186.44l2.62-7.141-91.92-192.87-20.18-38.289 0.82-1.707 63 0.441 39.74 69.125h4.35v-83.019h-191"
           style="fill:#ffffff;fill-opacity:1" /><path
           id="path30"
           fill="#040606"
           d="m2176.1 125.62c-14.48-0.145-28.41 26.961-28.41 49.832 0 43.07 22.03 73.555 52.89 81.57 0.16-3.554-0.13-115.22 0-116.59-5.82-7.617-12.65-14.695-24.48-14.816zm95.73 21.477v114c0 71.007-41.5 94.472-87.67 94.472-33.55 0-66.26-9.289-89.37-28.828l2.1-9.238c17.42 7.625 35.23 14.719 51.34 14.719 26.1 0 47.39-17.305 52.35-63.364-89.1-6.49-121.6-53.46-121.6-101.53 0-41.449 22.98-77.195 62.67-77.195 30.39 0 52.46 19.875 62.31 38.422 7.57-19.621 28.47-32.375 49.32-32.321 17.86 0.0547 42.9 0 42.9 0v8.1176c-8.13 0-24.28 14.312-24.34 42.75"
           style="fill:#ffffff;fill-opacity:1" /><path
           id="path32"
           fill="#040606"
           d="m1807.8 121.18c16.59 0 31.55 5.883 45.23 11l1.3-3.836c-14.69-21.625-46.53-38.207-74.47-38.207-61.99 0-115.69 50.066-115.69 132.7 0 67.809 46.72 132.68 126.63 132.68 19.2 0 48.2-3.215 60.28-7.184v-78.429l-4.37-0.008-42.33 72.332c-27.06 0-63.37-24.289-63.37-114.07 0-81.165 32.31-106.97 66.79-106.97"
           style="fill:#ffffff;fill-opacity:1" /><path
           id="path34"
           fill="#040606"
           d="m1675.1 321.75c-0.69 19.461-16.81 34.672-35.99 33.969-3.92-0.149-7.66-0.973-11.13-2.317-19.62-6.797-35.74-24.199-47.95-44.679l-1.04 0.183v44.211l-2.66 2.379-98.44-19.523v-3.825l30.32-18.242v-194.32l-30.32-18.559v-4.8004h139.82v4.8004l-38.69 18.559v163.24c4.36 12.473 11.98 20.461 21.46 21.84 10.44 1.523 20.63-3.141 27.32-17 4.27-1.688 8.93-2.598 13.81-2.414 19.19 0.695 34.19 17.035 33.49 36.496"
           style="fill:#ffffff;fill-opacity:1" /></g></g></switch></svg>