<?xml version="1.0" encoding="utf-8"?>
<!-- Generator: Adobe Illustrator 15.1.0, SVG Export Plug-In . SVG Version: 6.00 Build 0)  -->
<!DOCTYPE svg PUBLIC "-//W3C//DTD SVG 1.1//EN" "http://www.w3.org/Graphics/SVG/1.1/DTD/svg11.dtd">
<svg version="1.1" id="Ebene_1" xmlns="http://www.w3.org/2000/svg" xmlns:xlink="http://www.w3.org/1999/xlink" x="0px" y="0px"
	 width="591.008px" height="122.804px" viewBox="0 0 591.008 122.804" enable-background="new 0 0 591.008 122.804"
	 xml:space="preserve">
<g>
	<path fill="#FFFFFF" d="M292.703,79.357c-2.396,3.465-6.562,6.101-11.046,6.101c-6.243,0-9.595-4.022-9.595-11.086
		c0-6.091,3.834-10.113,9.111-10.113c5.77,0,8.479,1.246,11.529,3.461V79.357z M311.59,98.468V48.469
		c0-15.92-8.168-24.23-27.687-24.23c-10.245,0-18.243,2.493-25.931,7.063L265.66,43.2c5.279-3.041,9.914-4.419,16.959-4.419
		c7.518,0,10.084,3.871,10.084,8.999v5.538c-3.682-1.941-6.723-2.908-14.087-2.908c-14.883,0-25.77,9.418-25.77,24.225
		c0,15.656,10.084,25.363,24.806,25.363c5.448,0,11.209-2.361,15.051-6.516v4.985H311.59z"/>
	<path fill="#FFFFFF" d="M421.652,79.357c-2.396,3.465-6.572,6.101-11.047,6.101c-6.24,0-9.604-4.022-9.604-11.086
		c0-6.091,3.844-10.113,9.123-10.113c5.76,0,8.479,1.246,11.527,3.461V79.357z M440.529,98.468V48.469
		c0-15.92-8.158-24.23-27.678-24.23c-10.254,0-18.252,2.493-25.938,7.063L394.6,43.2c5.289-3.041,9.926-4.419,16.969-4.419
		c7.518,0,10.084,3.871,10.084,8.999v5.538c-3.691-1.941-6.723-2.908-14.088-2.908c-14.881,0-25.77,9.418-25.77,24.225
		c0,15.656,10.084,25.363,24.807,25.363c5.447,0,11.209-2.361,15.051-6.516v4.985H440.529z"/>
	<path fill="#FFFFFF" d="M500.564,98.468V83.794H484.57c-6.885,0-12.805,0.133-17.932,0.264c3.521-4.013,7.846-9.139,12.162-14.947
		l21.764-29.083V25.77H449.83v14.674h14.09c6.873,0,12.803-0.133,17.771-0.284c-3.371,3.872-7.697,9.282-12.012,14.958
		l-22.248,29.092v14.259H500.564z"/>
	<path fill="#FFFFFF" d="M591.008,98.468V50.826c0-17.031-4.477-26.586-22.398-26.586c-6.09,0-11.529,2.626-15.684,6.497V25.77
		h-18.887v72.699h18.887V45.562c2.229-2.909,7.033-6.082,11.189-6.082c6.723,0,8.006,2.908,8.006,11.897v47.091H591.008z"/>
	<path fill="#FFFFFF" d="M247.106,98.468V1.52h-19.849L213.97,37.393c-3.201,8.583-6.392,17.04-7.517,21.884
		c-0.962-4.575-4.173-12.885-7.525-21.884L185.644,1.52h-20.161v96.948h17.923V67.166c0-11.497-0.161-22.152-0.321-29.356
		c2.236,6.921,20.178,55.814,20.178,55.814h5.686c0,0,17.988-48.894,20.225-55.814c-0.15,7.205-0.321,17.86-0.321,29.356v31.303
		H247.106z"/>
</g>
<rect x="507.42" y="49.037" fill="#FFFFFF" width="18.887" height="49.432"/>
<rect x="507.42" y="25.76" fill="#FFFFFF" width="18.887" height="18.489"/>
<g>
	<path fill="#FFFFFF" d="M136.21,75.202l-17.29-6.375c-4.154,10.53-7.676,13.854-14.561,13.854
		c-10.877,0-16.165-12.191-16.165-32.824c0-20.633,5.127-32.549,15.844-32.549c7.365,0,10.406,3.607,13.286,12.464l18.725-5.259
		C131.734,10.529,123.415,0,104.359,0C79.563,0,67.712,22.162,67.712,50.136c0,27.823,11.53,49.862,36.326,49.862
		C121.168,99.999,130.931,91.122,136.21,75.202"/>
	<path fill="#FFFFFF" d="M45.456,32.691c0,8.857-5.278,14.126-15.533,14.126h-9.915V18.422h9.604
		C41.301,18.422,45.456,24.655,45.456,32.691 M65.465,32.408c0-20.35-14.41-30.888-35.693-30.888H0v96.948h20.008V63.71h8.961
		C48.015,63.71,65.465,53.323,65.465,32.408"/>
	<path fill="#FFFFFF" d="M374.816,90.991c0,21.736-8.271,32.455-48.742,31.783l-4.07-11.767c29.756,0.21,33.521-5.57,33.889-16.807
		c-3.748,2.456-8.309,4.004-12.963,4.004c-15.684,0-24.484-10.407-24.484-36.024c0-22.152,7.686-36.146,26.08-36.146
		c4.154,0,8.139,1.209,11.416,3.191l-0.01-3.475h18.885V90.991z M355.818,79.14V45.089c-1.84-2.928-5.07-5.647-9.641-5.618
		c-6.713,0.047-9.434,5.269-9.434,22.161c0,15.931,1.918,23.04,9.764,23.125C349.729,84.787,353.77,82.615,355.818,79.14"/>
</g>
</svg>
