<?xml version="1.0" encoding="UTF-8" standalone="no"?>
<svg width="144px" height="143px" viewBox="0 0 144 143" version="1.1" xmlns="http://www.w3.org/2000/svg" xmlns:xlink="http://www.w3.org/1999/xlink" xmlns:sketch="http://www.bohemiancoding.com/sketch/ns">
    <!-- Generator: Sketch 3.2.2 (9983) - http://www.bohemiancoding.com/sketch -->
    <title>adn_active</title>
    <desc>Created with Sketch.</desc>
    <defs></defs>
    <g id="Page-2" stroke="none" stroke-width="1" fill="none" fill-rule="evenodd" sketch:type="MSPage">
        <g id="adn_logo_252-3" sketch:type="MSLayerGroup" transform="translate(-1.000000, 9.000000)" fill="#A01FF0">
            <text id="ADNAUSEAM" sketch:type="MSTextLayer" font-family="Bebas Neue" font-size="37.2413793" font-weight="bold" sketch:alignment="middle">
                <tspan x="2.23842098" y="127.825178">ADNAUSEAM</tspan>
            </text>
            <path d="M14.8709653,98.6630902 C8.34636587,88.2425162 4.57142857,75.902352 4.57142857,62.6746638 C4.57142857,34.3100372 21.9292805,10.0264089 46.5357144,6.46858844e-06 L46.5357144,6.46520522e-06 C46.5357144,15.0726728 46.5357144,30.7724692 46.5357143,42.5623574 C46.535714,73.8037898 57.535815,84.6809799 69.0587333,85.0033919 C69.0587333,85.0033919 70.3432821,85.0033916 71.7142316,85.0033913 C73.0852262,85.0033916 74.3698382,85.0033919 74.3698382,84.9962979 C85.8927564,84.6809799 96.8928574,73.8037898 96.8928571,42.5623574 C96.892857,30.7724692 96.892857,15.0726728 96.892857,6.46504748e-06 L96.892857,6.46858843e-06 C121.499291,10.0264089 138.857143,34.3100372 138.857143,62.6746638 C138.857143,75.8996743 135.083734,88.23752 128.561568,98.6567615 C115.772912,97.4121048 95.5090668,95.9214876 71.8059867,95.9214876 C48.0627187,95.9214876 27.7079163,97.4171637 14.8709653,98.6630902 Z M54.9285714,55.2376336 L54.9285714,59.2898886 C54.9285714,69.5459173 62.4417534,77.8600713 71.7142857,77.8600713 C80.9847797,77.8600713 88.5,69.5452499 88.5,59.2898886 L88.5,55.2376336 C88.5,44.9816049 77.5048654,45.8617713 71.7142857,45.8617713 C64.9903695,45.8617713 54.9285714,44.9822724 54.9285714,55.2376336 Z" id="adn_icon_new-21" sketch:type="MSShapeGroup"></path>
        </g>
    </g>
</svg>